inDegrees=no
num_controls=7
num_derivatives=13
num_iterations=78
num_multipliers=7
num_parameters=0
num_slacks=7
num_states=26
objective=0.334227
objective_accelerations=0.036431
objective_balance=0.001215
objective_effort=0.027344
objective_height=0.267572
objective_ligament=0.001666
solver_duration=848.277613
status=Solve_Succeeded
success=true
DataType=double
version=3
OpenSimVersion=4.5
endheader
time	/jointset/ground_pelvis/pelvis_tilt/value	/jointset/ground_pelvis/pelvis_tx/value	/jointset/ground_pelvis/pelvis_ty/value	/jointset/hip_r/hip_flexion_r/value	/jointset/hip_r/hip_adduction_r/value	/jointset/hip_r/hip_rotation_r/value	/jointset/back/lumbar_extension/value	/jointset/patellofemoral_r/patellar_flexion_r/value	/jointset/knee_r/knee_flexion_r/value	/jointset/knee_r/knee_adduction_r/value	/jointset/knee_r/knee_rotation_r/value	/jointset/ankle_r/ankle_angle_r/value	/jointset/subtalar_r/subtalar_angle_r/value	/jointset/ground_pelvis/pelvis_tilt/speed	/jointset/ground_pelvis/pelvis_tx/speed	/jointset/ground_pelvis/pelvis_ty/speed	/jointset/hip_r/hip_flexion_r/speed	/jointset/hip_r/hip_adduction_r/speed	/jointset/hip_r/hip_rotation_r/speed	/jointset/back/lumbar_extension/speed	/jointset/patellofemoral_r/patellar_flexion_r/speed	/jointset/knee_r/knee_flexion_r/speed	/jointset/knee_r/knee_adduction_r/speed	/jointset/knee_r/knee_rotation_r/speed	/jointset/ankle_r/ankle_angle_r/speed	/jointset/subtalar_r/subtalar_angle_r/speed	/forceset/tau_hip_flexion_r	/forceset/tau_hip_adduction_r	/forceset/tau_hip_rotation_r	/forceset/tau_knee_flexion_r	/forceset/tau_ankle_angle_r	/forceset/tau_subtalar_angle_r	/forceset/tau_lumbar_extension	lambda_cid13_p0	lambda_cid14_p0	lambda_cid14_p1	lambda_cid14_p2	lambda_cid14_p3	lambda_cid14_p4	lambda_cid14_p5	/jointset/ground_pelvis/pelvis_tilt/accel	/jointset/ground_pelvis/pelvis_tx/accel	/jointset/ground_pelvis/pelvis_ty/accel	/jointset/hip_r/hip_flexion_r/accel	/jointset/hip_r/hip_adduction_r/accel	/jointset/hip_r/hip_rotation_r/accel	/jointset/back/lumbar_extension/accel	/jointset/patellofemoral_r/patellar_flexion_r/accel	/jointset/knee_r/knee_flexion_r/accel	/jointset/knee_r/knee_adduction_r/accel	/jointset/knee_r/knee_rotation_r/accel	/jointset/ankle_r/ankle_angle_r/accel	/jointset/subtalar_r/subtalar_angle_r/accel	gamma_cid13_p0	gamma_cid14_p0	gamma_cid14_p1	gamma_cid14_p2	gamma_cid14_p3	gamma_cid14_p4	gamma_cid14_p5
1	-0.2805071182321406	-0.00589330598757884	0.6354044445718148	1.460004486338685	-0.2464121897565087	0.021210510213439	-0.7853978384998177	1.508092405295329	1.508092405295327	-0.05037910269868449	0.1745326558407268	0.4362495341964036	0.1578087708671164	0.07335114014293422	0.005820200724819293	0.01589503287855799	-0.1048061517600097	-0.001777538584099098	-0.003267613841200999	0.0001104917005030586	-0.01735915533375311	-0.0173591553337531	0.003824663818578097	7.264195750101628e-05	0.01373703410493462	0.003388390185374711	-0.3635499788277419	0.04035852773023443	0.02452026866127573	-0.4342873351065654	-0.05176757859998134	-0.01001469066260208	0.3737794679720761	-0.04073471528185361	-69.27434171264676	-19.86055396287765	7.451007729798716	8.873142253020525	-771.8328763259368	54.52120632011522	1.445361290077597	0.1625050412640399	1.839502115480569	-5.630790566037158	0.03328855547415009	-0.9353627941126441	0.007226300469835343	-5.034638882971379	-5.034638882971374	0.6240120951387867	-0.00505233258549892	-1.094778010767665	-0.4444257007115876	8.238035377174006e-10	-2.879514248849958e-10	3.401090772862541e-10	7.352560399903953e-09	4.366712343811155e-10	-4.382451789090276e-09	-6.606317896490723e-10
1.01	-0.2797026483432162	-0.005826867651669931	0.6356551469481537	1.458676368112399	-0.2464281883962806	0.0211318423620923	-0.7853936322510323	1.507667416435723	1.50766741643572	-0.05030914017428001	0.1745327248551057	0.4363323129985824	0.1578206956944782	0.08748037793167091	0.00748252218708186	0.03423624080422927	-0.1607614971559036	-0.001423777451735073	-0.01246708164525187	0.0009262450359403143	-0.06763106192311145	-0.06763106192311147	0.01016591574568025	-5.729556971513844e-05	0.002835527774551712	-0.0009990691771752012	-0.3641851187415969	0.04041960457965271	0.02453106147276269	-0.4341669464089553	-0.05207473309762283	-0.009976629280463596	0.3747105297012431	-0.04073343981726463	-69.39385380603304	-19.85928991783787	7.444341538671186	8.709427068596643	-772.3442106216869	54.52692198948146	1.387336320015978	0.1703540888386233	1.830048392240392	-5.569506970313586	0.03618453993114453	-0.912407451127157	0.1480728958109191	-5.02233371571175	-5.022333715711662	0.6388937151239941	-0.01672870705679625	-1.085582783757574	-0.4352484251103877	1.832163776558374e-09	-1.487605120281238e-10	1.461271846868575e-08	1.621272820106638e-08	1.562844585150095e-10	-7.474313467732937e-09	1.96255417352846e-08
1.02	-0.2787587598170568	-0.005743354423111537	0.636088985055975	1.456790376343374	-0.2464406964951633	0.02096114609718613	-0.7853754038596908	1.506739935076464	1.506739935076455	-0.0501758227358779	0.1745315416453649	0.4363065452625143	0.1577888774539982	0.10123486759018	0.009235179254716291	0.05252217917508829	-0.2163808603097128	-0.001079430406827289	-0.02167329655233678	0.002914920200578079	-0.1178576552642168	-0.117857655264217	0.01649564661790659	-0.0001778028676158182	-0.007975812139191154	-0.005360223383074399	-0.3648202586554056	0.04048068142907775	0.02454185428428574	-0.4340465577113446	-0.05238188759527404	-0.00993856789831777	0.3756415914304509	-0.04073812457029593	-69.52085771620122	-19.85592570991906	7.433443168996206	8.549512956175846	-772.9901041420742	54.54294830702881	1.370411664032109	0.1805721623383867	1.828448204518109	-5.563594117620233	0.03140573798290835	-0.9367122147194444	0.2418106663098181	-5.025576233320771	-5.025576233320796	0.621707884163618	-0.003166286722419033	-1.076744727439741	-0.4391646693814547	3.025788892529536e-09	5.397783842094415e-10	2.924742824685468e-08	2.529254265682705e-08	-1.386657114571913e-09	-1.152604264112288e-08	4.094607475467083e-08
1.03	-0.2776786898690216	-0.005641877779477961	0.6367054319651155	1.454349395327523	-0.2464498218340884	0.0206983948768557	-0.7853321617400525	1.5053103464615	1.505310346461499	-0.04997918321001868	0.1745292508625387	0.4361729911378575	0.1577135090660139	0.1147662032387831	0.01107375967105312	0.07076043667235302	-0.2718054884022192	-0.0007484392360202233	-0.03087560363706296	0.005857347882285195	-0.1680595785368713	-0.1680595785368716	0.0228368538329118	-0.0002738176731275889	-0.01873155252434971	-0.009715845415719621	-0.3651540237861606	0.04055523630682732	0.02455415819899176	-0.4335936890428046	-0.05284064509086615	-0.009869909581454324	0.3762765264811347	-0.04075326029685993	-69.67291113324664	-19.83332828054304	7.407678164228138	8.50590253754021	-773.277836316302	54.54640601921088	1.342557353398283	0.1875419133534637	1.820496483103249	-5.530418603699588	0.03353107501779973	-0.9117885283288913	0.339035442290947	-5.017427846870224	-5.017427846870135	0.6410187112336284	-0.01182864516018048	-1.074471254185849	-0.4341085108976355	4.221304466430598e-09	1.23392287211416e-09	4.388583292692942e-08	3.437459840498157e-08	-2.942481899875382e-09	-1.558756638078576e-08	6.227716246277596e-08
1.04	-0.2764636939968765	-0.005521607145266006	0.6375040578413832	1.451354463741026	-0.2464557202076254	0.02034366087107796	-0.7852557800189544	1.503378753119283	1.503378753119286	-0.04971899329779519	0.174526198018122	0.4359319830973192	0.1575945149495654	0.1282200524123399	0.01299397737039181	0.0889579726005089	-0.3271709744400693	-0.00043403732968642	-0.04006985364097653	0.009542840491576074	-0.2182586007148226	-0.2182586007148227	0.02920572389050494	-0.0003302151864235279	-0.02946659531478473	-0.01408536907602934	-0.3654877889168916	0.04062979118458132	0.02456646211372939	-0.4331408203742645	-0.05329940258646447	-0.009801251264586129	0.376911461531839	-0.04077448565785603	-69.83252330615032	-19.80863940922036	7.37767896082364	8.464592957078079	-773.7019356465896	54.56064600625663	1.354914369022831	0.1968996189388088	1.820303890696339	-5.551765706689009	0.02808788508823761	-0.935100798556922	0.3904236518265671	-5.024996014380086	-5.024996014380041	0.6272404526812143	0.00475717172076895	-1.072605208494926	-0.4419449949143401	5.557775021672408e-09	2.655363479717256e-09	5.746037972000271e-08	4.580152477763666e-08	-5.614515263490336e-09	-1.768716150895629e-08	8.366770650769638e-08
1.05	-0.2751147323995889	-0.005381707533035166	0.6384843406509929	1.447806564347888	-0.2464585328912918	0.01989710675071681	-0.7851385222660785	1.500945336305342	1.500945336305341	-0.0493949813915888	0.1745227291235355	0.4355836841360837	0.1574317912564873	0.1415393160989365	0.01500148001791801	0.1070802217680222	-0.3823586373744643	-0.0001282751163927606	-0.04923429935829604	0.01406518652149836	-0.2684093693428559	-0.2684093693428564	0.03559715820954089	-0.0003628314512082607	-0.0401938858243006	-0.01845698747560086	-0.3655507757049071	0.0406886815659992	0.02458136254976411	-0.4323560720602137	-0.05368597551693721	-0.009720432212659721	0.3773704179235691	-0.04080341199134756	-69.93863244159137	-19.76271296031906	7.336768721724605	8.382754896368239	-773.7192667205829	54.55191992149022	1.315490757031705	0.2050041375009847	1.805426331094813	-5.494725823314254	0.0318629380695751	-0.906115359820678	0.5066115442775356	-5.007809770607984	-5.00780977060799	0.645173213843352	-0.007144472783501873	-1.072896583372174	-0.4343947670426547	6.898650420081115e-09	4.099532091060922e-09	7.10016809541072e-08	5.730172835730739e-08	-8.321430145177517e-09	-1.972544636801769e-08	1.050601085631423e-07
